<?xml version="1.0" encoding="UTF-8"?>
<svg id="Ebene_1" xmlns="http://www.w3.org/2000/svg" viewBox="0 0 900 250">
  <defs>
    <style>
      .cls-1 {
        fill: #00796b;
        fill-rule: evenodd;
      }
    </style>
  </defs>
  <path class="cls-1" d="M72.21,96.38v56.05c0,18.58,14.93,33.64,33.34,33.64h55.55v22.41h-55.55c-30.68,0-55.55-25.09-55.55-56.05v-56.05h22.21Z"/>
  <path class="cls-1" d="M72.21,51.53v67.25h-22.21V51.53h22.21Z"/>
  <path class="cls-1" d="M94.45,51.53h11.11c30.68,0,55.55,25.09,55.55,56.05v33.63H50v-22.41s88.9,0,88.9,0v-11.22c0-18.58-14.93-33.64-33.34-33.64h-11.11v-22.41Z"/>
  <path class="cls-1" d="M227.77,51.53v67.25h-22.21V51.53h22.21Z"/>
  <path class="cls-1" d="M227.77,96.38v56.05c0,18.58,14.93,33.64,33.34,33.64h11.11v22.41h-11.11c-30.68,0-55.55-25.09-55.55-56.05v-56.05h22.21Z"/>
  <path class="cls-1" d="M327.77,51.53v67.25h-22.21V51.53h22.21Z"/>
  <path class="cls-1" d="M327.77,96.38v67.25h-22.21v-67.25h22.21Z"/>
  <path class="cls-1" d="M327.77,141.21v67.25h-22.21v-67.25h22.21Z"/>
  <path class="cls-1" d="M461.13,163.62v-56.05c0-18.58-14.93-33.64-33.34-33.64h-55.55v-22.41h55.55c30.68,0,55.55,25.09,55.55,56.05v56.05h-22.21Z"/>
  <path class="cls-1" d="M461.13,208.47v-67.25h22.21v67.25h-22.21Z"/>
  <path class="cls-1" d="M438.89,208.47h-11.11c-30.68,0-55.55-25.09-55.55-56.05v-33.63h111.11v22.41h-88.9v11.22c0,18.58,14.93,33.64,33.34,33.64h11.11v22.41Z"/>
  <path class="cls-1" d="M827.79,208.47v-67.25h22.21v67.25h-22.21Z"/>
  <path class="cls-1" d="M827.79,163.62v-56.05c0-18.58-14.93-33.64-33.34-33.64h-55.55v-22.41h55.55c30.68,0,55.55,25.09,55.55,56.05v56.05h-22.21Z"/>
  <path class="cls-1" d="M805.55,208.47h-11.11c-30.68,0-55.55-25.09-55.55-56.05v-33.63h111.11v22.41h-88.9v11.22c0,18.58,14.93,33.64,33.34,33.64h11.11v22.41Z"/>
  <path class="cls-1" d="M661.11,208.47v-67.25h-22.21v67.25h22.21Z"/>
  <path class="cls-1" d="M638.89,107.58c0-30.95,24.87-56.05,55.55-56.05h11.11v22.41h-11.11c-18.41,0-33.34,15.06-33.34,33.64v56.05h-22.21v-56.05Z"/>
  <path class="cls-1" d="M572.23,51.53v67.25h-22.21V51.53h22.21Z"/>
  <path class="cls-1" d="M572.23,96.38v67.25h-22.21v-67.25h22.21Z"/>
  <path class="cls-1" d="M572.23,141.21v67.25h-22.21v-67.25h22.21Z"/>
  <path class="cls-1" d="M616.67,73.94h-66.66v-22.41h66.66v22.41Z"/>
  <path class="cls-1" d="M572.22,73.94h-66.66v-22.41h66.66v22.41Z"/>
</svg>