<?xml version="1.0" encoding="UTF-8"?>
<svg xmlns="http://www.w3.org/2000/svg" version="1.1" viewBox="0 0 277.8 116.2">
  <defs>
    <style>
      .cls-1 {
        fill-rule: evenodd;
      }

      .cls-2 {
        fill: #0054d7;
      }
    </style>
  </defs>
  <!-- Generator: Adobe Illustrator 28.6.0, SVG Export Plug-In . SVG Version: 1.2.0 Build 709)  -->
  <g>
    <g id="Content">
      <g>
        <path class="cls-2" d="M69.9,23.1v32h-14.5v-19.2h-8.3v19.2h-14.5v-32h37.3Z"/>
        <path class="cls-1" d="M86.5,23.1h6.3l14.4,19.8v-19.8h6.7v32h-5.8l-14.9-20.2v20.2h-6.7v-32ZM117.2,43.1h0c0-7,4.8-12.7,11.7-12.7s11.5,6.3,11.5,13.2,0,1.2,0,1.8h-16.4c.7,3.1,2.8,4.8,5.8,4.8s3.9-.7,5.7-2.5l3.8,3.5c-2.2,2.8-5.4,4.5-9.6,4.5-7.1,0-12.3-5.1-12.3-12.6h0,0ZM133.8,41.1c-.4-3.1-2.2-5.2-5-5.2s-4.6,2.1-5.1,5.2h10.1ZM144.5,36.7h-2.8v-5.9h2.8v-6.2h6.7v6.2h5.5v5.9h-5.5v10.4c0,1.6.7,2.4,2.1,2.4s2.3-.3,3.3-.9v5.5c-1.4.9-3,1.4-5.3,1.4-4.1,0-6.9-1.7-6.9-7.3v-11.5s0,0,0,0ZM191.9,30.8h6.7v3.5c1.6-2.3,3.9-3.9,7.4-3.9,5.5,0,10.7,4.4,10.7,12.6h0c0,8.2-5.1,12.7-10.7,12.7s-5.8-1.7-7.4-3.6v10.4h-6.7v-31.6ZM210,42.9c0-4-2.6-6.7-5.8-6.7s-5.7,2.7-5.7,6.7h0c0,4.1,2.6,6.8,5.7,6.8s5.8-2.6,5.8-6.7h0ZM219.4,30.8h6.7v3.5c1.6-2.3,3.9-3.9,7.4-3.9,5.5,0,10.7,4.5,10.7,12.6h0c0,8.2-5.2,12.7-10.7,12.7s-5.8-1.7-7.4-3.6v10.4h-6.7v-31.6ZM237.6,42.9c0-4-2.7-6.7-5.8-6.7s-5.7,2.7-5.7,6.7h0c0,4.1,2.6,6.8,5.7,6.8s5.8-2.6,5.8-6.7h0ZM171.3,23.1h6.1l12.9,32h-7.1l-2.8-7.1h-12.2l-2.8,7.1h-6.9l12.9-32ZM178.3,41.8l-4.1-10.3-4.1,10.3h8.2Z"/>
        <g>
          <g>
            <path class="cls-2" d="M86.8,69.4h2.7v23.7h-2.7v-23.7Z"/>
            <path class="cls-2" d="M89.7,93.4h-3.3v-24.3h3.3v24.3ZM87.1,92.8h2.1v-23.1h-2.1v23.1Z"/>
          </g>
          <g>
            <path class="cls-2" d="M94.6,75.6h2.6v3c1.1-1.9,3-3.4,6-3.4s6.7,2.8,6.7,7v10.9h-2.6v-10.2c0-3.2-1.8-5.3-4.8-5.3s-5.2,2.2-5.2,5.5v10h-2.6v-17.5Z"/>
            <path class="cls-2" d="M110.2,93.4h-3.2v-10.5c0-3.1-1.7-5-4.5-5s-4.9,2.1-4.9,5.2v10.3h-3.2v-18.1h3.2v2.4c1.4-1.8,3.3-2.7,5.7-2.7,4.3,0,7,2.9,7,7.3v11.2ZM107.6,92.8h2v-10.6c0-4.1-2.5-6.7-6.4-6.7s-4.4,1.1-5.7,3.3l-.6.9v-3.8h-2v16.9h2v-9.7c0-3.4,2.3-5.8,5.5-5.8s5.1,2.1,5.1,5.6v9.9Z"/>
          </g>
          <g>
            <path class="cls-2" d="M112.6,90.9l1.3-1.9c1.9,1.4,4,2.2,6.1,2.2s3.6-1.1,3.6-2.8h0c0-1.8-2.1-2.5-4.4-3.1-2.7-.8-5.8-1.7-5.8-4.9h0c0-3.1,2.5-5.1,6-5.1s4.5.7,6.3,1.9l-1.2,2c-1.6-1-3.5-1.7-5.2-1.7s-3.4,1.1-3.4,2.5h0c0,1.7,2.2,2.4,4.5,3.1,2.7.8,5.6,1.9,5.6,5h0c0,3.4-2.7,5.3-6.2,5.3s-5.3-1-7.2-2.6Z"/>
            <path class="cls-2" d="M119.9,93.7c-2.6,0-5.4-1-7.4-2.6l-.2-.2,1.7-2.3.2.2c1.9,1.4,3.9,2.2,5.9,2.2s3.3-1,3.3-2.5-1.8-2.2-4.1-2.9c-2.5-.7-6-1.7-6-5.2s2.6-5.4,6.3-5.4,4.6.7,6.5,2l.2.2-1.5,2.5-.3-.2c-1.6-1.1-3.4-1.6-5-1.6s-3.1.9-3.1,2.2,2,2.1,4.2,2.8c2.4.7,5.9,1.8,5.9,5.3s-2.6,5.6-6.5,5.6ZM113,90.8c1.9,1.4,4.5,2.3,6.8,2.3,3.5,0,5.9-2,5.9-4.9s-2.6-3.9-5.4-4.8c-2.5-.7-4.7-1.4-4.7-3.3s1.5-2.9,3.7-2.9,3.4.6,5.1,1.6l.9-1.5c-1.7-1.1-3.9-1.7-5.9-1.7-3.3,0-5.7,1.9-5.7,4.7s2.5,3.9,5.6,4.7c2,.6,4.6,1.3,4.6,3.4s-1.6,3.1-3.9,3.1-4.1-.7-6-2.1l-1,1.4Z"/>
          </g>
          <g>
            <path class="cls-2" d="M130.1,88.5v-10.6h-2.4v-2.3h2.4v-5.3h2.6v5.3h5.5v2.3h-5.5v10.2c0,2.1,1.2,2.9,2.9,2.9s1.6-.2,2.5-.6v2.2c-.9.5-1.9.7-3.1.7-2.8,0-4.9-1.4-4.9-4.9Z"/>
            <path class="cls-2" d="M135.1,93.7c-3.4,0-5.2-1.9-5.2-5.2v-10.3h-2.4v-2.9h2.4v-5.3h3.2v5.3h5.5v2.9h-5.5v9.9c0,1.8.8,2.6,2.6,2.6s1.6-.2,2.4-.6l.4-.2v2.9h-.2c-1,.6-2.1.9-3.3.9ZM128,77.6h2.4v10.9c0,3.8,2.5,4.6,4.6,4.6s2-.2,2.8-.6v-1.6c-.8.3-1.4.4-2.2.4-2.1,0-3.2-1.1-3.2-3.2v-10.5h5.5v-1.7h-5.5v-5.3h-2v5.3h-2.4v1.7Z"/>
          </g>
          <g>
            <path class="cls-2" d="M140.2,88h0c0-3.8,3-5.7,7.5-5.7s3.8.3,5.4.7v-.6c0-3.1-1.9-4.8-5.2-4.8s-3.7.5-5.3,1.3l-.8-2.1c1.9-.9,3.8-1.5,6.4-1.5s4.4.6,5.6,1.9c1.2,1.2,1.8,2.9,1.8,5.1v10.7h-2.5v-2.6c-1.2,1.6-3.2,3-6.3,3s-6.5-1.9-6.5-5.4ZM153.1,86.7v-1.7c-1.3-.4-3-.7-5.1-.7-3.3,0-5.1,1.4-5.1,3.6h0c0,2.3,2,3.6,4.4,3.6s5.9-2,5.9-4.7Z"/>
            <path class="cls-2" d="M146.8,93.8c-3.4,0-6.8-2-6.8-5.7h0c0-3.7,3-6,7.8-6s3.8.3,5.1.7v-.2c0-3.7-2.7-4.5-4.9-4.5s-3.8.6-5.2,1.3h-.3c0,.1-1-2.6-1-2.6h.3c1.6-.8,3.6-1.6,6.5-1.6s4.5.7,5.9,2c1.2,1.2,1.9,3,1.9,5.3v11h-3.1v-2.1c-1.2,1.3-3.1,2.5-6,2.5ZM147.7,82.6c-4.5,0-7.2,2-7.2,5.3h0c0,3.4,3.1,5.2,6.2,5.2s5.1-1.6,6.1-2.9l.5-.7v3.2h1.9v-10.4c0-2.1-.6-3.8-1.7-4.9-1.2-1.2-3-1.8-5.4-1.8s-3.9.4-6,1.3l.6,1.6c1.4-.6,3-1.2,5.1-1.2,3.5,0,5.5,1.8,5.5,5.1v1h-.4c-1.3-.5-2.9-.8-5.3-.8ZM147.3,91.7c-2.8,0-4.7-1.6-4.7-3.8s2-4,5.4-4,3.5.2,5.2.8h.2v2c0,2.9-2.6,5-6.2,5ZM148,84.5c-3,0-4.8,1.2-4.8,3.3s2.1,3.3,4.1,3.3c3.2,0,5.6-1.9,5.6-4.4v-1.5c-1.6-.5-3.2-.7-4.8-.7Z"/>
          </g>
          <g>
            <path class="cls-2" d="M158.7,84.4h0c0-5,3.9-9.2,9-9.2s5.4,1.4,7,3.1l-1.7,1.8c-1.4-1.5-2.9-2.6-5.3-2.6-3.6,0-6.3,3-6.3,6.8h0c0,3.9,2.8,6.9,6.4,6.9s4-1.1,5.3-2.6l1.7,1.6c-1.8,2-3.9,3.4-7.1,3.4-5.1,0-9-4.2-9-9.1Z"/>
            <path class="cls-2" d="M167.7,93.8c-5.1,0-9.3-4.2-9.3-9.4h0c0-5.3,4.2-9.5,9.3-9.5s5.8,1.7,7.2,3.2l.2.2-2.1,2.3-.2-.2c-1.3-1.3-2.8-2.5-5.1-2.5-3.3,0-6,2.8-6,6.5s2.7,6.6,6.1,6.6,3.6-.8,5.1-2.5l.2-.2,2.1,2-.2.2c-1.5,1.6-3.6,3.5-7.4,3.5ZM167.7,75.5c-4.8,0-8.7,4-8.7,8.8h0c0,4.9,3.9,8.8,8.7,8.8s5.4-1.6,6.7-3.1l-1.2-1.2c-1.6,1.7-3.4,2.5-5.4,2.5-3.8,0-6.7-3.1-6.7-7.1s2.9-7.1,6.6-7.1,4.1,1.2,5.3,2.5l1.3-1.4c-1.3-1.4-3.3-2.8-6.6-2.8Z"/>
          </g>
          <g>
            <path class="cls-2" d="M178,68.4h2.6v24.7h-2.6v-24.7Z"/>
            <path class="cls-2" d="M180.9,93.4h-3.2v-25.3h3.2v25.3ZM178.3,92.8h2v-24.1h-2v24.1Z"/>
          </g>
          <g>
            <path class="cls-2" d="M185,86.5v-10.9h2.6v10.2c0,3.2,1.8,5.3,4.8,5.3s5.2-2.2,5.2-5.5v-10h2.6v17.5h-2.6v-3c-1.2,1.9-3,3.4-6,3.4s-6.7-2.8-6.7-7Z"/>
            <path class="cls-2" d="M191.7,93.8c-4.3,0-7-2.9-7-7.3v-11.2h3.2v10.5c0,3.1,1.7,5,4.5,5s4.9-2.1,4.9-5.2v-10.3h3.2v18.1h-3.2v-2.4c-1.4,1.9-3.3,2.8-5.7,2.8ZM185.3,75.9v10.6c0,4.1,2.5,6.7,6.4,6.7s4.4-1.1,5.7-3.3l.6-.9v3.8h2v-16.9h-2v9.7c0,3.3-2.3,5.8-5.5,5.8s-5.1-2.1-5.1-5.6v-9.9h-2Z"/>
          </g>
          <g>
            <path class="cls-2" d="M203.3,90.9l1.3-1.9c1.9,1.4,4,2.2,6.1,2.2s3.6-1.1,3.6-2.8h0c0-1.8-2.1-2.5-4.4-3.1-2.7-.8-5.8-1.7-5.8-4.9h0c0-3.1,2.5-5.1,6-5.1s4.5.7,6.3,1.9l-1.2,2c-1.6-1-3.5-1.7-5.2-1.7s-3.4,1.1-3.4,2.5h0c0,1.7,2.2,2.4,4.5,3.1,2.7.8,5.6,1.9,5.6,5h0c0,3.4-2.7,5.3-6.2,5.3s-5.3-1-7.2-2.6Z"/>
            <path class="cls-2" d="M210.6,93.7c-2.6,0-5.4-1-7.4-2.6l-.2-.2,1.7-2.3.2.2c1.9,1.4,3.9,2.2,5.9,2.2s3.3-1,3.3-2.5-1.8-2.2-4.1-2.9c-2.5-.7-6-1.7-6-5.2s2.6-5.4,6.3-5.4,4.6.7,6.5,2l.2.2-1.5,2.5-.3-.2c-1.6-1-3.4-1.6-5-1.6s-3.1.9-3.1,2.2,2,2.1,4.2,2.8c2.4.7,5.9,1.8,5.9,5.3s-2.6,5.6-6.5,5.6ZM203.7,90.8c1.9,1.4,4.5,2.3,6.8,2.3,3.5,0,5.9-2,5.9-4.9s-2.6-3.9-5.4-4.8c-2.5-.7-4.7-1.4-4.7-3.3s1.5-2.9,3.7-2.9,3.4.6,5.1,1.6l.9-1.5c-1.7-1.1-3.9-1.7-5.9-1.7-3.3,0-5.7,1.9-5.7,4.7s2.5,3.9,5.6,4.7c2,.6,4.6,1.3,4.6,3.4s-1.6,3.1-3.9,3.1-4.1-.7-6-2.1l-1,1.4Z"/>
          </g>
          <g>
            <path class="cls-2" d="M220.9,88.5v-10.6h-2.4v-2.3h2.4v-5.3h2.6v5.3h5.5v2.3h-5.5v10.2c0,2.1,1.2,2.9,2.9,2.9s1.6-.2,2.5-.6v2.2c-.9.5-1.9.7-3.1.7-2.8,0-4.9-1.4-4.9-4.9Z"/>
            <path class="cls-2" d="M225.8,93.7c-3.4,0-5.2-1.9-5.2-5.2v-10.3h-2.4v-2.9h2.4v-5.3h3.2v5.3h5.5v2.9h-5.5v9.9c0,1.8.8,2.6,2.6,2.6s1.6-.2,2.4-.6l.4-.2v2.9h-.2c-1,.6-2.1.9-3.3.9ZM218.7,77.6h2.4v10.9c0,3.8,2.5,4.6,4.6,4.6s2-.2,2.8-.6v-1.6c-.8.3-1.4.4-2.2.4-2.1,0-3.2-1.1-3.2-3.2v-10.5h5.5v-1.7h-5.5v-5.3h-2v5.3h-2.4v1.7Z"/>
          </g>
          <g>
            <path class="cls-2" d="M232.3,75.6h2.6v4.6c1.3-2.9,3.8-5,7.1-4.9v2.8h-.2c-3.8,0-6.9,2.7-6.9,8v7h-2.6v-17.5Z"/>
            <path class="cls-2" d="M235.2,93.4h-3.2v-18.1h3.2v3.6c1.5-2.6,4-4.1,6.9-3.9h.3v3.4h-.5c-4,0-6.6,3-6.6,7.7v7.3ZM232.6,92.8h2v-6.7c0-5,2.8-8.3,7.1-8.3v-2.2c-2.8,0-5.3,1.7-6.6,4.7l-.6,1.3v-5.7h-2v16.9Z"/>
          </g>
        </g>
      </g>
    </g>
  </g>
</svg>